<svg viewBox="0 0 24 24" fill="none" xmlns="http://www.w3.org/2000/svg">
<path d="M12 0L12.3357 0.00461305C18.8047 0.182596 24 5.48827 24 12C24 18.612 18.624 24 12 24C5.388 24 0 18.612 0 12C0 5.376 5.388 0 12 0ZM14.376 7.2C14.016 6.84 13.452 6.84 13.104 7.2L8.916 11.364C8.748 11.532 8.652 11.76 8.652 12C8.652 12.24 8.748 12.468 8.916 12.636L13.104 16.8C13.272 16.98 13.5 17.064 13.728 17.064C13.968 17.064 14.196 16.98 14.376 16.8C14.724 16.44 14.724 15.876 14.364 15.528L10.824 12L14.364 8.472C14.724 8.124 14.724 7.548 14.376 7.2Z" fill="currentColor"/>
</svg>
