<svg width="24" height="25" viewBox="0 0 24 25" fill="none" xmlns="http://www.w3.org/2000/svg">
<path fill-rule="evenodd" clip-rule="evenodd" d="M11.3081 0C17.5434 0 22.6152 5.07184 22.6152 11.3071C22.6152 14.2489 21.4863 16.932 19.6388 18.9457L23.274 22.5733C23.6143 22.9135 23.6154 23.4639 23.2752 23.8041C23.1057 23.9759 22.8816 24.0607 22.6586 24.0607C22.4369 24.0607 22.2139 23.9759 22.0432 23.8064L18.3641 20.1376C16.4288 21.6875 13.9748 22.6154 11.3081 22.6154C5.07279 22.6154 -0.000213623 17.5424 -0.000213623 11.3071C-0.000213623 5.07184 5.07279 0 11.3081 0ZM11.3081 1.7417C6.03305 1.7417 1.74149 6.0321 1.74149 11.3071C1.74149 16.5822 6.03305 20.8737 11.3081 20.8737C16.582 20.8737 20.8735 16.5822 20.8735 11.3071C20.8735 6.0321 16.582 1.7417 11.3081 1.7417Z" fill="currentColor"/>
</svg>
